<?xml version="1.0" encoding="UTF-8" standalone="no"?>
<!-- Generator: Adobe Illustrator 21.1.0, SVG Export Plug-In . SVG Version: 6.00 Build 0)  -->

<svg
   viewBox="0 0 30 30"
   width="30px"
   height="30px"
   version="1.1"
   id="svg1"
   sodipodi:docname="facebook-white.svg"
   inkscape:version="1.4 (e7c3feb100, 2024-10-09)"
   xmlns:inkscape="http://www.inkscape.org/namespaces/inkscape"
   xmlns:sodipodi="http://sodipodi.sourceforge.net/DTD/sodipodi-0.dtd"
   xmlns="http://www.w3.org/2000/svg"
   xmlns:svg="http://www.w3.org/2000/svg">
  <defs
     id="defs1" />
  <sodipodi:namedview
     id="namedview1"
     pagecolor="#ffffff"
     bordercolor="#000000"
     borderopacity="0.25"
     inkscape:showpageshadow="2"
     inkscape:pageopacity="0.0"
     inkscape:pagecheckerboard="0"
     inkscape:deskcolor="#d1d1d1"
     inkscape:zoom="27.533333"
     inkscape:cx="15"
     inkscape:cy="15"
     inkscape:window-width="1916"
     inkscape:window-height="1035"
     inkscape:window-x="0"
     inkscape:window-y="18"
     inkscape:window-maximized="1"
     inkscape:current-layer="svg1" />
  <path
     d="M24,4H6C4.895,4,4,4.895,4,6v18c0,1.105,0.895,2,2,2h10v-9h-3v-3h3v-1.611C16,9.339,17.486,8,20.021,8c1.214,0,1.856,0.09,2.16,0.131V11h-1.729C19.376,11,19,11.568,19,12.718V14h3.154l-0.428,3H19v9h5c1.105,0,2-0.895,2-2V6C26,4.895,25.104,4,24,4z"
     id="path1"
     style="fill:#ffffff" />
</svg>
