<?xml version="1.0" encoding="UTF-8" standalone="no"?>
<!-- Uploaded to: SVG Repo, www.svgrepo.com, Generator: SVG Repo Mixer Tools -->

<svg
   width="30"
   height="30"
   viewBox="0 0 0.75 0.75"
   version="1.1"
   id="svg1"
   sodipodi:docname="linkedin-white.svg"
   inkscape:version="1.4 (e7c3feb100, 2024-10-09)"
   xmlns:inkscape="http://www.inkscape.org/namespaces/inkscape"
   xmlns:sodipodi="http://sodipodi.sourceforge.net/DTD/sodipodi-0.dtd"
   xmlns="http://www.w3.org/2000/svg"
   xmlns:svg="http://www.w3.org/2000/svg"
   xmlns:rdf="http://www.w3.org/1999/02/22-rdf-syntax-ns#"
   xmlns:cc="http://creativecommons.org/ns#"
   xmlns:dc="http://purl.org/dc/elements/1.1/">
  <sodipodi:namedview
     id="namedview1"
     pagecolor="#ffffff"
     bordercolor="#000000"
     borderopacity="0.25"
     inkscape:showpageshadow="2"
     inkscape:pageopacity="0.0"
     inkscape:pagecheckerboard="0"
     inkscape:deskcolor="#d1d1d1"
     inkscape:zoom="19.381444"
     inkscape:cx="9.9579782"
     inkscape:cy="14.395212"
     inkscape:window-width="1916"
     inkscape:window-height="1035"
     inkscape:window-x="0"
     inkscape:window-y="18"
     inkscape:window-maximized="1"
     inkscape:current-layer="svg1" />
  <title
     id="title1">linkedin [#161]</title>
  <desc
     id="desc1">Created with Sketch.</desc>
  <defs
     id="defs1" />
  <g
     id="Page-1"
     stroke="none"
     stroke-width="1"
     fill="none"
     fill-rule="evenodd"
     style="fill:#ffffff"
     transform="matrix(0.02521697,0,0,0.025,0.125,0.125)">
    <g
       id="Dribbble-Light-Preview"
       transform="translate(-180,-7479)"
       fill="#000000"
       style="fill:#ffffff">
      <g
         id="icons"
         transform="translate(56,160)"
         style="fill:#ffffff">
        <path
           d="m 143.82792,7339 h -3.96558 v -6.999 c 0,-1.92 -0.83971,-2.991 -2.34564,-2.991 -1.63878,0 -2.61134,1.116 -2.61134,2.991 V 7339 h -3.96559 v -13 h 3.96559 v 1.462 c 0,0 1.2442,-2.202 4.04787,-2.202 2.80466,0 4.87469,1.726 4.87469,5.298 z m -17.40693,-15.079 c -1.33739,0 -2.42099,-1.102 -2.42099,-2.461 0,-1.358 1.0836,-2.46 2.42099,-2.46 1.3364,0 2.42,1.102 2.42,2.46 9.9e-4,1.359 -1.0836,2.461 -2.42,2.461 z M 124,7339 h 4.95698 v -13 H 124 Z"
           id="linkedin-[#161]"
           style="fill:#ffffff;stroke-width:0.995689" />
      </g>
    </g>
  </g>
  <metadata
     id="metadata1">
    <rdf:RDF>
      <cc:Work
         rdf:about="">
        <dc:title>linkedin [#161]</dc:title>
      </cc:Work>
    </rdf:RDF>
  </metadata>
</svg>
